<svg xmlns="http://www.w3.org/2000/svg" width="90" height="90">
  <g fill="none" fill-rule="evenodd">
    <g fill-rule="nonzero">
      <path fill="#B7CFFF" d="M62.29 25H27.71A2.712 2.712 0 0 0 25 27.71v34.58A2.712 2.712 0 0 0 27.71 65h34.58A2.712 2.712 0 0 0 65 62.29V27.71A2.712 2.712 0 0 0 62.29 25Zm-.89 36.4H28.6V38.135h32.8V61.4Zm0-26.865H28.6V28.6h32.8v5.935Z"/>
      <path fill="#DAE1EB" d="M30.285 31.57a1.8 1.8 0 1 0 3.6 0 1.8 1.8 0 0 0-3.6 0ZM29.928 51.2l6.715 5.7a1.804 1.804 0 0 0 2.54-.205c.645-.76.55-1.895-.21-2.535l-5.095-4.33 5.085-4.285c.76-.64.86-1.775.215-2.535a1.794 1.794 0 0 0-2.535-.215l-6.71 5.655a1.8 1.8 0 0 0-.005 2.75ZM55.961 49.83l-5.09 4.32a1.8 1.8 0 1 0 2.33 2.74l6.715-5.7a1.8 1.8 0 0 0-.005-2.75l-6.72-5.645a1.799 1.799 0 0 0-2.535.215c-.64.76-.545 1.895.22 2.535l5.085 4.285ZM35.235 31.59a1.8 1.8 0 1 0 3.6 0 1.8 1.8 0 0 0-3.6 0Z"/>
    </g>
    <path stroke="#DAE1EB" stroke-linecap="round" stroke-linejoin="round" stroke-width="3" d="M48.319 42.573 40.861 58.33"/>
  </g>
</svg>
