<svg width="34" height="26" xmlns="http://www.w3.org/2000/svg" xmlns:xlink="http://www.w3.org/1999/xlink"><defs><path id="a" d="M0 26h34V0H0z"/><path id="c" d="M0 0h33.766v23.74H0z"/></defs><g fill="none" fill-rule="evenodd"><mask id="b" fill="#fff"><use xlink:href="#a"/></mask><g mask="url(#b)"><g transform="translate(0 .813)"><mask id="d" fill="#fff"><use xlink:href="#c"/></mask><path d="M22.25 11.397a4.468 4.468 0 0 1 2.021-.534 4.504 4.504 0 0 1 4.592 4.414 4.498 4.498 0 0 1-.514 2.189h.001a5.055 5.055 0 0 1-.144.247c-.112.184-.237.36-.374.527-1.744 2.204-5.827 4.47-10.556 4.57-5.832.12-10.738-2.8-11.752-5.616l.005-.002a4.258 4.258 0 0 1 2.858-5.698l.005.057a2.28 2.28 0 0 1 .114-.2l.01-.017c.042-.065.088-.129.137-.189l.001-.001a2.17 2.17 0 0 1 1.246-.76 2.187 2.187 0 0 1 2.52 1.452c-.006-.05-.012-.098-.022-.148a2.18 2.18 0 0 0-.69-1.187c.635-2.42 2.886-4.144 5.476-3.998 2.594.146 4.643 2.12 4.997 4.602a4.48 4.48 0 0 0-.747.854c-.065.097-.122.197-.178.297.292-.34.629-.626.993-.859M20.871.281 20.85.278a1.68 1.68 0 0 0-1.04.141l-.282.17a1.683 1.683 0 0 1-1.622-.084c-.107-.066-.198-.152-.302-.224a1.53 1.53 0 0 0-.34-.176 1.69 1.69 0 0 0-1.73.34l-.031.03a1.683 1.683 0 0 1-1.734.23l-.281-.152a1.688 1.688 0 0 0-.711-.143 1.693 1.693 0 0 0-.334.043l-.03.006C5.166 1.93-.112 6.689.003 12.217.138 18.773 7.806 23.93 17.13 23.736c9.323-.195 16.77-5.668 16.634-12.224C33.649 5.983 28.176 1.45 20.871.282" fill="#1677FF" mask="url(#d)"/></g></g></g></svg>